<?xml version="1.0" encoding="UTF-8"?>
<svg xmlns="http://www.w3.org/2000/svg" version="1.1" viewBox="0 0 1920 1080">
  <defs>
    <style>
      .cls-1 {
        fill: #532410;
      }

      .cls-2 {
        fill: #ef780a;
      }

      .cls-3 {
        fill: #f5fdee;
      }
    </style>
  </defs>
  <!-- Generator: Adobe Illustrator 28.7.1, SVG Export Plug-In . SVG Version: 1.2.0 Build 142)  -->
  <g>
    <g id="Layer_1">
      <g id="Layer_1-2" data-name="Layer_1">
        <ellipse class="cls-3" cx="956.6" cy="585.6" rx="375.1" ry="438.9"/>
        <ellipse class="cls-3" cx="503.2" cy="452.2" rx="64.7" ry="86.7"/>
        <ellipse class="cls-3" cx="1414.5" cy="445.3" rx="64.7" ry="86.7"/>
        <g id="Layer_1-2">
          <g>
            <path class="cls-1" d="M1400,869.3c21.9-55.3,33.6-111.3,12.9-165.1-20.5,184.8-144.9,277.7-308.9,333.9-32.2,11.1-66.4,16.4-99.5,24.4-2.4.6-4.7,2.3-7,3.5-35.5,18.8-49.4,18.4-85.3-.5-33.1-17.3-71.1-15.6-105.8-27-120.3-39-219.9-103.7-279.7-219.1-19-36.4-27.9-75.9-26.9-125-24.8,65-12.1,120.3,10.2,178.1-86.1-84.7-108.9-205-60.4-309.3,2.4-5.3.6-7-3-10-72.1-62.7-65.6-177.1,12-218.2,22.3-11.8,45.9-14.3,70-7.9,5.2,1.4,7.4.9,9.9-3.8,7.6-14.9,15.8-29.6,24.6-45.9-24,3.2-46.6,7.9-67.9,17.2C516.4,172.5,732.6,18.3,905,2.4c244.3-22.5,427.2,117.4,509.6,293.4-20.7-8.8-41.3-14.7-62.9-17.6-2-.3-4.3.5-6.4.8.9,1.7,1.8,3.3,2.6,5,12.8,27.6,26.7,41.9,64.7,42.5,85.3,1.2,128.5,109.9,80.2,189.8-4.3,7-8.2,15.3-14.4,19.9-19.6,14.1-18.7,28.2-10,50.1,37.7,94.8,7.3,217.1-67.4,284.3-.5-.5-.9-.8-1.4-1.2h.5ZM747.4,939.6c0,.8.3,1.7.5,2.6.3,0,.6-.3.8-.3-.5-.8-.9-1.4-1.4-2.1-53-99.3-40.4-195,18.8-291.1-7.3,5.3-11.8,8.4-15.9,11.8-61.7,52.1-82.6,144.3-49.7,219.1,10.5,23.8,22.2,47.1,46.6,60.1h0l.3-.2ZM1147.5,654.3c0-.6,0-1.2-.2-1.8-.3,0-.6.3-.9.5.5.5.8.9,1.2,1.4,56.5,93.2,66.8,188.8,12.9,289.7,3.6-2.7,4.9-3.5,6.1-4.6,55.4-46.3,74.6-137.9,43.6-209.4-13.5-31.3-31.6-58.9-62.7-75.8h0ZM1256.5,690.1c13.8,24.3,20.7,51.2,29.2,80.5,9.7-23.8,6.7-45.6,4.6-73.6,38.1,71.1,13.4,129.5-14.9,186.8,51.6-28.1,95.4-118.1,87.6-185.3-6.1-51.9-28.7-95.1-74.1-129.8,15.6,37.8,24,73,24.9,111.9-6.8-15.8-15.2-28.1-26.7-37.5-14.4-12-29.3-32.8-47.4-28.2-26.4,6.7-51.6,11.7-81.4,6.1,87.6,58,97.6,141.4,84.9,236,29.5-55.9,27.6-111,13.4-167h0v.3ZM620.7,571.2c-3.2,1.4-7.1,1.8-9.6,4.1-104.2,90.7-74.9,239.8,25.4,310.7v.3c.2,0,0-.2,0-.2-48.7-83.2-43.4-153.7-17.9-179.5,1.1,20.5-4.3,41.3,5.8,63.2,7.6-27,14-51.5,27.5-77.4-12.1,78.4-5.5,142.4,15.8,163.2-12.5-90.4-5.6-174.2,83.8-234.5-32,4.6-57.9,4.4-82.2-7.9-2-1.1-6.1,1.4-9,2.9-26.3,14.3-50,31.4-63.5,64.4.6-41.2,9.3-75.9,23.8-109.5,0-.5.2-1.1.3-1.5,0,.6,0,1.1-.3,1.7h0ZM704.1,464.6h.3c-6.4,21.7-5.2,42.1,3.5,56.3,0-24.3,1.8-48.1,13.2-70,.5,3.2-.2,6.4-.8,9.4-10,52.1,16.7,98.9,60.1,104.9,80,11.1,141.4-69.5,117.8-155.3-11.5-42.1-38.6-69.9-81.7-78.5-44.5-9-78.7,9.9-103.7,45.9-26.9,38.7-37.5,82.6-35.8,129.2,1.1,28.7,8.7,55.3,35.8,71.4,2.6,1.5,7.6,4.4,7.9,4.1,2.7-3.9-.9-6.5-2.9-9.3-24.9-33.6-31.6-69.2-13.7-108.3h0l-.2.2ZM1189.6,452c11.7,21.9,11.5,45.9,11.7,73.5,5.6-14.7,8.2-26,7.6-38,0-2.4-4.6-6.2.2-7.3,4.9-1.2,4.1,4.3,4.7,7,8.2,37.2-5.6,67.7-31.9,97.5,29.5-12,41.2-31.6,48.4-59.2,14.6-54.7-16.6-148.2-64.4-179.8-61-40.4-135.3-5.6-155.3,72.9-20.7,80.9,39.8,156.4,117.5,147,47.4-5.8,72.3-53.3,59.5-113.4h2v-.2ZM757.2,105.5c20.5.5,41.2.3,63.5,7.3-94.6,12.6-161.3,62.9-208,140.8-44.2,73.6-86.7,148.5-70.2,247.4,34-133.3,119.2-213.5,169.5-219.7-66.1,51.3-92,118.7-86.9,199.4,7-43.7,21.4-84.7,45.1-122.4,57.2-91,154.1-99.3,226.4-20.2,20.5,22.5,34.6,48.7,49,79.1-1.5-50.3-13.4-92.6-46.3-126.9-32.8-34.2-74-48.9-122.8-47.4,38-25.5,101.7-14.3,152.9,25.1,0,.3.2.5.3.8h.5c-.3-.3-.6-.5-.9-.8-6.5-20.2-21.3-34.3-37.8-45.4-57.4-38.4-114.3-24.9-169.9,5.3-14.7,7.9-28.4,18.2-41.5,28.7-12.9,10.5-24.6,22.6-42.2,39,50.3-98.6,129.7-124.7,228.8-118.1-30.2-9.6-57.6-17.3-86.6-15.8,58-11.5,109,4.7,151.1,44.5,17,16.1,28.2,26.6,43.6.8,2-3.5,6.4-5.5,9.9-8.2,41.9-32.3,88.7-46.8,141.5-37.8-26.1.9-51.3,6.4-82.8,15.2,51.6-1.8,96.6-1.1,135.8,24.3,58.6,37.8,85.2,67.4,88.5,93.4-58.2-60.6-122.4-109.8-214.9-88.2-34.3,7.9-69.2,41-73.6,63.9,48.7-52.4,111-45.4,154.1-27.3h0c-3.5.3-7.1.9-10.8.8-88.1-3.6-166.6,80.9-156.4,170.2,8.8-23.5,21.4-43,35.1-62,60-83.2,151.1-91.3,219.3-17.3,37.2,40.4,54.2,91.3,64.7,145.5,4.1-85.9-26.1-154.4-101.4-207.6,109.6,40.2,151.4,127.6,184.2,227.8,14.7-97.2-27.3-173.7-72.6-248.3-47.4-78.1-115-128.9-211.1-138.5,22.9-7.6,44.3-7.9,71.1-7.4-11.8-6.8-18.8-11.5-26.4-15-56-26.4-111.8-32.8-166,4.3-6.5,4.4-9.9,4.4-15.8,0-49.7-36.1-151.5-30.2-190.1,10.8,0,.2-.3.5-.5.6,0-.2.3-.5.3-.6h0l.3.3ZM971.8,830.7c17.5-1.2,51.8-3,85.8-6.4,22.9-2.3,45.7-6.5,68.5-9.9,9.6-1.4,16.6-5,16.1-16.1-2.4-51.2-20.5-95.1-60.7-128-5.8-4.7-7.1-8-5.9-15.2,9.9-59.5-35.8-111.2-86.3-92.3-26.1,9.7-42.8,10-69.1,0-50.6-19.3-95.7,33.9-85,94.3.5,3,3.6,6.5-.9,9.6-46.3,31.1-61.8,78.1-66.5,130.4-.9,10.3,5,15.6,15,17.3,56.9,9.3,114.3,15.6,189.1,16.1h0v.2ZM1091.3,952.2c3.2-.9,4.4-.9,5-1.5,2.1-2.1,4.1-4.3,5.9-6.5,21.7-27.2,32-58.5,35.8-92.8,1.4-12.8-.9-16.2-14.4-13.8-103.6,18.2-207.1,25.2-311.6,3.9-46.2-9.4-46.6-7-34.6,39.9,7,27.6,18.8,52.4,41.3,74.9-3-14-5.5-24.9-7.4-35.8-.5-2.1.8-4.4,1.2-6.7,1.5,1.5,3.3,2.7,4.3,4.6,6.8,13.1,15.5,24.6,29.5,37.8-2.3-7.3-3.2-10-3.9-12.8-1.1-3.8-2.1-7.7-3-11.5,5.8-.3,5.9,5.5,8.4,8.5,10.3,12.5,20.5,25.1,36.1,33-3.3-11.2-6.5-21.3-9.6-31.4,21.7,24.1,51.9,36.3,75.3,57.4,5.5,4.9,7.7,4.1,12.5-.3,22.3-21.1,52.7-32.2,74-56.2-3.3,10.2-6.8,20.2-10.5,31.1,18.2-9.7,30.1-25.1,46.3-44.9-3.8,12.8-5.8,19.3-8.5,27.8,16.4-13.8,26.3-29.9,36.6-51.5-1.8,18.8-1.8,32.8-8.8,47.1h0l.3-.2ZM462.3,698.3c12.5-25.7,37.8-37.2,51.2-56.2,28.5-40.8,58.5-79.3,97.5-110.5,5-3.9,3.9-9.7,2.3-14.6-1.4-4.4-5.6-2-8.7-1.4-80.6,16.1-145.8,98.4-142.4,182.7h.2ZM1446.6,691.3c2.9-76.7-56.3-153.1-138.5-174.5-4.1-1.1-8.5-.6-12.9-.9,1.4,6.1-1.2,12.8,5.6,17.8,58.5,44.6,89.9,113.6,145.8,157.5h0v.2ZM469.2,459.9c-2.9-25.2,14.9-55.7,38.7-67.9,7.4-3.8,9.4-10.5,12.5-17-5.2-.8-10.6-2.7-15.6-1.8-8.4,1.4-17.2,3-24.3,7.1-46.8,27.2-48.3,110.7-2.4,142.4,2.1-32.3,31.6-55.1,29.6-89.1-.5-8.2-1.2-7.9-7.4-6.1-15.8,4.6-24.9,15.9-31,32.5h0v-.2ZM1431.5,522.8c12.1-10.2,19.9-23.1,25.8-37.1,22-51.5-6.1-110.4-54.1-112.7-4.9-.2-9.7,1.2-14.6,2,3,5.8,3,12.5,11.1,15.9,24.6,10.8,44.3,44.6,39.6,67.9-5.6-16.9-16.2-27.3-32.2-31.9-2-.6-4.4.3-6.7.6,2.1,12.8,1.2,27.3,7.3,38,10.5,18.1,19.1,36.3,23.8,57.2h-.2ZM845.9,954.2c-.2,0-.3-.3-.6-.3v1.2c.2,0,.5,0,.6-.3v-.6h0Z"/>
            <path class="cls-1" d="M1401.4,870.5l-1.7,1.2c0-.8.3-1.5.5-2.3.5.3.9.8,1.4,1.2h0l-.2-.2Z"/>
            <path class="cls-2" d="M929.6,268c-51.2-39.3-115.1-50.6-152.9-25.1,48.9-1.5,89.9,13.4,122.8,47.4,33,34.2,44.8,76.7,46.3,126.9-14.4-30.5-28.5-56.8-49-79.1-72.3-79.1-169.2-70.8-226.4,20.2-23.5,37.5-38.1,78.5-45.1,122.4-5-80.6,21-148.2,87-199.4-50.4,6.2-135.6,86.4-169.5,219.7-16.6-98.9,25.8-173.7,70.2-247.4,46.8-77.7,113.4-128.2,208-140.8-22.3-7-43-6.8-63.5-7.3h0c38.7-41,140.6-46.9,190.1-10.8,5.9,4.4,9.4,4.4,15.8,0,54.2-37.1,109.9-30.7,166-4.3,7.4,3.5,14.4,8.2,26.4,15-26.7-.3-48,0-71.1,7.4,96.3,9.6,163.7,60.3,211.1,138.5,45.3,74.6,87.2,151.1,72.6,248.3-32.8-100.1-74.6-187.5-184.2-227.8,75.3,53,105.5,121.6,101.4,207.6-10.5-54.2-27.5-105.1-64.7-145.5-68-74-159.3-65.8-219.3,17.3-13.7,19-26.3,38.4-35.1,62-10.3-89.3,68.3-173.9,156.4-170.2,3.5.2,7.1-.6,10.8-.9,1.8.6,3.6,1.1.2,0,3.6.2,1.7,0-.2,0-43-18.1-105.2-25.2-154.1,27.3,4.6-22.9,39.5-56,73.6-63.9,92.6-21.6,156.7,27.6,214.9,88.2-3.3-25.8-29.9-55.6-88.5-93.4-39.2-25.4-84.1-26.1-135.8-24.3,31.4-8.7,56.8-14.3,82.8-15.2-52.8-9-99.6,5.5-141.5,37.8-3.3,2.6-7.7,4.7-9.9,8.2-15.3,25.8-26.6,15.3-43.6-.8-42.1-39.8-93.1-56-151.1-44.5,28.9-1.5,56.2,6.2,86.6,15.8-99.2-6.5-178.7,19.6-228.8,118.1,17.6-16.6,29.2-28.7,42.2-39,13.1-10.5,26.7-20.7,41.5-28.7,55.6-30.2,112.4-43.7,169.9-5.3,16.6,11.1,31.3,25.2,37.8,45.4h0l-.2-.2ZM844.4,97.3c33.9,13.4,67.3,28.5,88.2,57.6,18.8,26.1,27.2,24,44.9,0,21.4-28.9,53.9-44.2,87.2-57.6-12.8,1.2-25.5,2.6-44.2,4.4,12.6-5.2,19.6-8,28.1-11.5-33.1-.6-60.9,10.2-84.3,31-7.4,6.7-11.7,6.1-18.4-.3-24-22.5-53.3-30.7-90.8-31.1,12,4.3,19,6.7,26,9.3-.3.9-.6,2-.9,2.9-11.8-1.5-23.8-2.9-35.7-4.4h0l-.2-.2ZM772.4,243.8c.5-.2,1.1-.5,1.5-.6-.5-.3-1.1-.6-1.5-.6s-1.1.3-1.5.6c.5.3,1.1.5,1.5.8h0v-.2Z"/>
            <path class="cls-2" d="M636.4,886.2c-100.1-71.1-129.5-220.2-25.4-310.7,2.4-2.1,6.4-2.7,9.6-4.1h0c-14.4,33.4-23.2,68.2-23.8,109.3,13.4-33,37.1-50.1,63.5-64.4,2.7-1.5,7-3.9,9-2.9,24.3,12.1,50.1,12.5,82.2,7.9-89.6,60.1-96.3,144.1-83.8,234.5-21.3-20.8-27.9-84.7-15.8-163.2-13.4,25.8-19.9,50.4-27.5,77.4-10-21.9-4.6-42.7-5.8-63.2-25.5,26-30.8,96.3,17.9,179.5h0v-.2Z"/>
            <path class="cls-2" d="M1256.5,690c14.3,56,16.2,111.2-13.4,167,12.8-94.6,2.7-178-84.9-236,29.6,5.6,55,.6,81.4-6.1,18.1-4.6,32.8,16.2,47.4,28.2,11.4,9.4,19.9,21.7,26.7,37.5-.9-38.9-9.1-74.1-24.9-111.9,45.4,34.8,68.2,77.9,74.1,129.8,7.7,67.3-36,157.3-87.6,185.3,28.2-57.2,53-115.9,14.9-186.8,2.1,28.1,5.2,49.8-4.6,73.6-8.5-29.3-15.3-56.3-29.2-80.5-.2-.3-.3-.8-.5-1.1.2,0,.5,0,.5.3v.8h0v-.3Z"/>
            <path class="cls-2" d="M462.3,698.3c-3.5-84.3,61.7-166.6,142.4-182.7,3-.6,7.1-3,8.7,1.4,1.5,4.9,2.6,10.6-2.3,14.6-38.9,31.3-68.8,69.7-97.5,110.5-13.4,19.1-38.7,30.5-51.2,56.2h-.2Z"/>
            <path class="cls-2" d="M1446.6,691.3c-55.9-43.9-87.3-112.8-145.8-157.5-6.7-5.2-4.1-11.8-5.6-17.8,4.3.3,8.8-.2,12.9.9,82.2,21.4,141.4,97.8,138.5,174.5h0v-.2Z"/>
            <path class="cls-2" d="M1147.5,654.3c31.1,16.7,49.2,44.5,62.7,75.8,31,71.5,11.7,163.1-43.6,209.4-1.2,1.1-2.6,1.8-6.1,4.6,53.9-101,43.6-196.5-12.9-289.7h-.2Z"/>
            <path class="cls-2" d="M747.4,939.6c-24.6-13.1-36.1-36.3-46.6-60.1-33-74.9-12-167,49.7-219.1,4.1-3.5,8.7-6.4,15.9-11.8-59.2,96.1-71.8,191.6-18.8,291.1h-.2Z"/>
            <path class="cls-2" d="M1187.4,452l-1.8-6.2c.5-.2.9-.3,1.4-.5.9,2.3,1.7,4.4,2.6,6.7h-2.1Z"/>
            <path class="cls-2" d="M747.4,939.6c.5.8.9,1.4,1.4,2.1-.3,0-.6.3-.8.3,0-.8-.3-1.7-.5-2.6h0l-.2.2Z"/>
            <path class="cls-2" d="M620.7,571.2c0-.6,0-1.1.3-1.7,0,.5-.2,1.1-.3,1.5h0v.2Z"/>
            <path class="cls-2" d="M1147.5,654.3c-.5-.5-.8-.9-1.2-1.4.3,0,.6-.3.9-.5,0,.6,0,1.2.2,1.8h.2Z"/>
            <path class="cls-2" d="M757.2,105.5c0,.2-.3.5-.3.6,0-.2.3-.5.5-.6h-.2Z"/>
            <path class="cls-2" d="M929.6,268c.3.3.6.5.9.8h-.5c-.2-.2-.3-.5-.3-.8h-.2Z"/>
            <polygon class="cls-2" points="636.4 886.2 636.5 886.3 636.4 886.2 636.4 886.2"/>
            <path class="cls-1" d="M844.4,97.3c11.8,1.5,23.8,2.9,35.7,4.4.3-.9.6-2,.9-2.9-7-2.4-13.8-4.9-26-9.3,37.7.6,67,8.7,90.8,31.1,6.8,6.4,10.9,7,18.4.3,23.4-20.8,51.2-31.4,84.3-31-8.4,3.5-15.5,6.4-28.1,11.5,18.7-1.8,31.4-3.2,44.2-4.4-33.3,13.4-65.9,28.7-87.2,57.6-17.9,24.1-26.1,26.3-44.9,0-21-29-54.2-44.2-88.2-57.6h0l.2.2Z"/>
            <path class="cls-1" d="M1133.7,242.3c2,0,3.8.2.2,0,3.5,1.1,1.7.5-.2,0h0Z"/>
            <path class="cls-1" d="M772.4,243.8c-.5-.3-1.1-.5-1.5-.8.5-.2,1.1-.6,1.5-.6s1.1.5,1.5.6c-.5.2-1.1.5-1.5.6h0v.2Z"/>
            <path class="cls-1" d="M991.1,663.5c1.7,9.4.8,19.6-12.5,20-12.9.3-15.8-10-15.5-20.8.6-24.9,11.8-44.3,32.3-57.7,10.6-7,22.6-7,33.4,1.1,10.2,7.6,14,18.1,11.7,30.5-2.3,12.5-10.9,18.1-22.6,19.9-2.4.3-5.2,2.7-6.2-1.5-1.8-7-4.3-14.4-13.5-11.5-9.6,3-7.9,11.5-7,20.2h0l-.2-.2Z"/>
            <path class="cls-1" d="M869.5,631c.3-21.6,18.2-34.6,37.5-28.9,23.4,7,44.6,43.7,39,67.6-2.1,9-7.4,15.6-17.2,13.5-9.3-1.8-11.8-9-9.7-18.4,2-8.7,2.3-18.2-7.7-21.9-9.3-3.3-10.2,5.6-13.7,11.5-3.6,6.2-10.3,1.4-14.7-.6-10.3-4.6-12.9-14.1-13.4-22.9h-.2Z"/>
            <path class="cls-1" d="M1024.8,887.2c-38.1,32.3-102.8,31.1-142.1-1.2,47.1,6.4,93.4,5.6,142.1,1.2Z"/>
            <path class="cls-1" d="M1069.3,931.7c.2.5.5.9.6,1.4,0,.2-.5.5-.6.6-.2-.5-.5-.9-.6-1.4,0-.2.5-.5.6-.6h0Z"/>
            <path class="cls-1" d="M1141,467.5c-1.7-6.7-3-12-5.3-20.7-5.8,36.3-25.8,54.5-52.7,50.9-22.6-3-39-24.6-36.1-47.7,3-25.7,26.3-42.8,53.5-39.6,25.2,2.9,43.6,27.9,40.7,57.2h0v-.2ZM1107.9,439.6c-1.4-8.5-5-15-14.3-14.7-7.9.3-12.9,5.6-12.8,13.5.2,8.2,4.4,14.4,14,14.1,8.5-.2,11.8-5.6,13.1-12.9h0Z"/>
            <path class="cls-1" d="M1035.1,407.4c37.8-56.5,111.9-56.2,146.5,5-50.3-33.1-97.8-41.9-145-3.6-.5-.5-1.1-.9-1.5-1.4h0Z"/>
            <path class="cls-1" d="M1119.3,539.3c-28.7,15.2-50.6,7-75.8-27.8,21.3,17.9,45.4,28.1,75.8,27.8Z"/>
            <path class="cls-1" d="M1036.6,408.7c-1.1.5-2.3.8-3.3,1.2.6-.9,1.2-1.8,1.8-2.6.5.5,1.1.9,1.5,1.4h0Z"/>
            <path class="cls-1" d="M775,451.4c-2.3,1.5-4.6,3-6.7,4.6.3-2.7.5-5.5,1.2-8,5.9-21,18.5-34.6,40.8-37.5,22.3-2.7,38.7,6.7,49,26,8.8,16.2,6.4,32.3-5.5,46-11.8,14-27.8,18.5-45.6,14.3-19.1-4.7-29.5-19.3-33.4-45.3h0ZM832.6,439.1c-.9-9.1-6.4-14-14.4-14s-13.7,5.6-13.1,14.3c.5,8,5,13.5,14,13.2,9.1-.2,12.5-6.1,13.4-13.5h.2Z"/>
            <path class="cls-1" d="M725.8,413.3c56.9-72.7,126.3-53,151.7.5-47.7-44.9-97-34.2-151.7-.5Z"/>
            <path class="cls-1" d="M866,509c-7.6,31.4-39.6,43.7-81.5,31,32.2-.3,59.4-7.7,81.5-31Z"/>
            <path class="cls-1" d="M704.1,464.6c.3-.5.6-.8,1.1-1.2-.5,0-.9-.2-1.4-.3.2.5.5.9.6,1.4h-.2l-.2.2Z"/>
            <path class="cls-1" d="M1256.5,690v-.8s-.3,0-.5-.3c.2.3.3.8.5,1.1h0Z"/>
          </g>
        </g>
      </g>
    </g>
  </g>
</svg>